# xmcd
#
# Track frame offsets: 
#        150
#        10274
#        26324
#        43581
#        48242
#        66039
#        91767
#        104262
#        111911
#        127100
#        144563
#        150022
#        160585
#        179365
#        201429
#
# Disc length: 2873 seconds
#
# Revision: 1
# Processed by: cddbd v1.5.2PL0 Copyright (c) Steve Scherf et al.
# Submitted via: ExactAudioCopy v0.99pb5
#
DISCID=b90b370f
DTITLE=Βόσπορος - Τελευταίο καράβι από τη Χάλκη
DYEAR=2002
DGENRE=
TTITLE0=Taksim-Kemence
TTITLE1=Bakir Kazanlar
TTITLE2=Dumenci
TTITLE3=Taksim-Cello
TTITLE4=Heybeliden son vapur
TTITLE5=Butimar
TTITLE6=Nuh'un gemisi
TTITLE7=Taksim-Ney
TTITLE8=Sarsilmaz yuregim
TTITLE9=Sonra
TTITLE10=Taksim-gitar-kemence
TTITLE11=Dalgalar
TTITLE12=Nasil inkar edeyim seni
TTITLE13=Yarim istanbulu mesken mi tuttun
TTITLE14=Galata koprusunde
EXTD=
EXTT0=
EXTT1=
EXTT2=
EXTT3=
EXTT4=
EXTT5=
EXTT6=
EXTT7=
EXTT8=
EXTT9=
EXTT10=
EXTT11=
EXTT12=
EXTT13=
EXTT14=
PLAYORDER=
